Coordinates
version=1
nRows=11
nColumns=46
inDegrees=yes

Units are S.I. units (second, meters, Newtons, ...)
Angles are in degrees.

endheader
time	pelvis_tilt	pelvis_list	pelvis_rotation	pelvis_tx	pelvis_ty	pelvis_tz	bb_angle	bb_tx	bb_ty	bb_tz	hip_flexion_r	hip_adduction_r	hip_rotation_r	knee_angle_r	knee_angle_r_beta	ankle_angle_r	subtalar_angle_r	mtp_angle_r	crank_angle_r	hip_flexion_l	hip_adduction_l	hip_rotation_l	knee_angle_l	knee_angle_l_beta	ankle_angle_l	subtalar_angle_l	mtp_angle_l	crank_angle_l	lumbar_extension	lumbar_bending	lumbar_rotation	arm_flex_r	arm_add_r	arm_rot_r	elbow_flex_r	pro_sup_r	wrist_flex_r	wrist_dev_r	arm_flex_l	arm_add_l	arm_rot_l	elbow_flex_l	pro_sup_l	wrist_flex_l	wrist_dev_l
      2.50000000	    -21.46895145	      6.36138645	     10.64358211	      0.15406088	      1.14332422	     -0.21506179	      0.00000000	      0.50000000	      0.00000000	      0.25000000	     57.51399797	    -13.59617513	      4.31036469	     72.34302085	      1.26262390	    -13.22990514	    -14.39898555	      0.00000000	      0.00000000	     67.93300719	      6.75631848	      0.48756820	     53.90351356	      0.94079379	     16.30101460	     -4.06658419	      0.00000000	      0.00000000	    -59.53197633	     -5.17921371	    -10.15305984	     89.11315562	    -19.00586923	     33.97804917	     43.29846097	     34.06171651	      0.00000000	      0.00000000	     89.75891771	     -2.78111938	     25.28494230	     56.60543998	     23.59454656	      0.00000000	      0.00000000
      2.50500000	    -21.22877997	      6.00870846	     10.26897582	      0.15480956	      1.14111422	     -0.21591623	      0.00000000	      0.50000000	      0.00000000	      0.25000000	     58.55814833	    -13.26346593	      4.29871703	     75.03971450	      1.30969009	    -12.02194075	    -13.92866823	      0.00000000	      0.00000000	     66.60055481	      6.35006589	      0.60082286	     51.75614504	      0.90331514	     15.05970260	     -4.16598118	      0.00000000	      0.00000000	    -59.57136451	     -4.97046557	     -9.47949176	     89.07811328	    -19.55929496	     34.21804306	     44.13771521	     34.41945334	      0.00000000	      0.00000000	     89.75091320	     -2.97659702	     25.54595030	     56.67790683	     23.66359883	      0.00000000	      0.00000000
      2.51000000	    -21.07436965	      5.33593357	      9.68404529	      0.15573614	      1.13864822	     -0.21689058	      0.00000000	      0.50000000	      0.00000000	      0.25000000	     59.65797841	    -12.51917513	      4.16185965	     77.57324992	      1.35390862	    -11.12330365	    -14.02399582	      0.00000000	      0.00000000	     65.46597490	      5.52498778	      0.77777893	     49.83907435	      0.86985594	     14.04172177	     -3.71156481	      0.00000000	      0.00000000	    -59.38277579	     -4.75852470	     -8.63327390	     89.11253541	    -19.65341489	     34.34206051	     44.34198747	     34.51326503	      0.00000000	      0.00000000	     89.73518467	     -3.15045167	     25.52349191	     56.66283184	     23.67827738	      0.00000000	      0.00000000
      2.51500000	    -20.80593526	      5.04777361	      9.16698152	      0.15672734	      1.13631741	     -0.21787761	      0.00000000	      0.50000000	      0.00000000	      0.25000000	     60.74026412	    -12.10157883	      4.37443746	     80.24711877	      1.40057644	     -9.91199433	    -13.19702287	      0.00000000	      0.00000000	     64.06058013	      5.04597460	      0.82419564	     47.83386662	      0.83485847	     12.94312594	     -3.68270568	      0.00000000	      0.00000000	    -59.41311103	     -4.67461540	     -7.87632979	     89.02378464	    -20.27944525	     34.74219847	     45.18936735	     34.86409849	      0.00000000	      0.00000000	     89.72469122	     -3.00708571	     25.68804718	     56.34177311	     23.71303920	      0.00000000	      0.00000000
      2.52000000	    -20.49715077	      4.35651480	      8.60106101	      0.15797065	      1.13422488	     -0.21860596	      0.00000000	      0.50000000	      0.00000000	      0.25000000	     61.64201263	    -11.29848444	      4.19368163	     82.68022623	      1.44304217	     -9.11391544	    -13.38898783	      0.00000000	      0.00000000	     62.75692477	      4.12466492	      0.91647021	     46.06570470	      0.80399822	     11.87566009	     -2.96985294	      0.00000000	      0.00000000	    -59.36202669	     -4.31904306	     -7.00716986	     89.05483230	    -20.22251084	     34.93872916	     45.43292783	     34.96204677	      0.00000000	      0.00000000	     89.70893396	     -3.30320013	     25.63737859	     56.19799034	     23.70833855	      0.00000000	      0.00000000
      2.52500000	    -19.96950025	      3.69157909	      7.68497689	      0.15993052	      1.13215643	     -0.21932098	      0.00000000	      0.50000000	      0.00000000	      0.25000000	     62.36571794	    -10.27985478	      4.18579465	     85.13087571	      1.48581408	     -7.99834990	    -12.82798514	      0.00000000	      0.00000000	     61.50149480	      2.69824844	      0.31355956	     45.04491724	      0.78618212	     11.24606308	     -1.44937032	      0.00000000	      0.00000000	    -59.48286046	     -4.23179760	     -5.56133904	     88.99758168	    -21.64070230	     36.54173801	     46.85645962	     35.83068011	      0.00000000	      0.00000000	     89.70523605	     -3.27184065	     26.42220907	     55.44223524	     23.95407155	      0.00000000	      0.00000000
      2.53000000	    -19.70072816	      2.96092798	      7.01613669	      0.16140079	      1.13046024	     -0.22047484	      0.00000000	      0.50000000	      0.00000000	      0.25000000	     63.32263865	     -9.43506457	      3.99899408	     87.38693142	      1.52518968	     -7.32081602	    -12.87528127	      0.00000000	      0.00000000	     60.08072719	      1.78702312	      0.58199710	     43.18241797	      0.75367537	     10.26213175	     -0.92216836	      0.00000000	      0.00000000	    -59.37442219	     -3.81649788	     -4.62202160	     89.03523665	    -21.41644536	     36.69194109	     47.01311044	     35.90046661	      0.00000000	      0.00000000	     89.68195963	     -3.64301817	     26.33667712	     55.21551414	     23.93379252	      0.00000000	      0.00000000
      2.53500000	    -19.34242940	      2.39638453	      6.24905906	      0.16321962	      1.12933029	     -0.22194539	      0.00000000	      0.50000000	      0.00000000	      0.25000000	     64.17259480	     -8.66320647	      4.04543404	     89.54540350	      1.56286212	     -6.33984583	    -12.11957300	      0.00000000	      0.00000000	     58.39596242	      0.93670851	      0.70054551	     41.19754717	      0.71903284	      9.12112868	     -0.55525859	      0.00000000	      0.00000000	    -59.35995054	     -3.54017037	     -3.52546701	     89.01812170	    -21.90342914	     37.55563411	     47.65332185	     36.41223767	      0.00000000	      0.00000000	     89.67826872	     -3.93829668	     27.08449208	     54.36749036	     24.15317681	      0.00000000	      0.00000000
      2.54000000	    -19.22977513	      1.94777234	      5.72813951	      0.16455010	      1.12878155	     -0.22379941	      0.00000000	      0.50000000	      0.00000000	      0.25000000	     65.25249660	     -8.15284301	      4.13544277	     91.49054276	      1.59681121	     -5.67243526	    -11.69865300	      0.00000000	      0.00000000	     56.30809292	      0.75892440	      1.78289984	     37.99444909	      0.66312823	      7.48165834	     -1.55324668	      0.00000000	      0.00000000	    -59.23098647	     -3.10360798	     -2.77932754	     89.04150708	    -21.91474720	     37.87426857	     48.01586544	     36.65164081	      0.00000000	      0.00000000	     89.66588433	     -4.32426152	     27.38886384	     53.81693863	     24.26753252	      0.00000000	      0.00000000
      2.54500000	    -19.04025656	      1.18446196	      4.91984576	      0.16613801	      1.12784637	     -0.22531720	      0.00000000	      0.50000000	      0.00000000	      0.25000000	     66.27444327	     -7.14672350	      4.05931014	     93.40594476	      1.63024128	     -5.14223991	    -11.66898666	      0.00000000	      0.00000000	     54.80459092	     -0.23896855	      2.11169179	     36.11856277	      0.63038784	      6.45373748	     -1.00837599	      0.00000000	      0.00000000	    -59.10887593	     -2.61710852	     -1.62026508	     89.08233739	    -21.65066086	     38.03466026	     48.17719686	     36.71775254	      0.00000000	      0.00000000	     89.63139992	     -4.79465376	     27.32858649	     53.58865056	     24.26899387	      0.00000000	      0.00000000
      2.55000000	    -18.59282195	      0.59439032	      3.93444573	      0.16816870	      1.12814576	     -0.22667248	      0.00000000	      0.50000000	      0.00000000	      0.25000000	     66.92878501	     -6.12469447	      4.14344414	     95.09142680	      1.65965849	     -4.39129273	    -11.01336786	      0.00000000	      0.00000000	     52.76233543	     -1.31797355	      1.98084781	     33.88929044	      0.59147970	      5.11207830	     -0.64009400	      0.00000000	      0.00000000	    -59.28000423	     -2.46516197	     -0.47458089	     89.10692180	    -21.81273907	     38.58424717	     48.55700847	     36.93841483	      0.00000000	      0.00000000	     89.62867181	     -5.23283615	     28.46285728	     52.56620520	     24.34759035	      0.00000000	      0.00000000
